/* XPM */
static char * test_xpm[] = {
"40 40 925 2",
"  	c None",
". 	c #E7A55A",
"+ 	c #D18F45",
"@ 	c #F8A65A",
"# 	c #DC883D",
"$ 	c #DC883E",
"% 	c #D59019",
"& 	c #CE8A12",
"* 	c #AB7700",
"= 	c #B6840A",
"- 	c #BE8416",
"; 	c #D59A2D",
"> 	c #DAA73A",
", 	c #D09E2F",
"' 	c #E5B246",
") 	c #DAA83C",
"! 	c #CD9D30",
"~ 	c #E3B247",
"{ 	c #C9871B",
"] 	c #BD7A0F",
"^ 	c #BD7B0F",
"/ 	c #CBAA56",
"( 	c #D7B662",
"_ 	c #C1A04C",
": 	c #C1A065",
"< 	c #CBAA70",
"[ 	c #B5945A",
"} 	c #B7A03C",
"| 	c #CFB653",
"1 	c #DF9E39",
"2 	c #DF9D38",
"3 	c #C7841C",
"4 	c #BB770F",
"5 	c #D18E44",
"6 	c #DC994F",
"7 	c #D28E44",
"8 	c #D69018",
"9 	c #C58008",
"0 	c #C18D15",
"a 	c #CD9A21",
"b 	c #CB9023",
"c 	c #E1A73A",
"d 	c #DFAD41",
"e 	c #E4B246",
"f 	c #D9A93C",
"g 	c #DF9D32",
"h 	c #C1A04D",
"i 	c #CCAA57",
"j 	c #CCAA6F",
"k 	c #C1A066",
"l 	c #D7B67B",
"m 	c #CFB652",
"n 	c #D3922D",
"o 	c #BD7B16",
"p 	c #DF9A31",
"q 	c #D28D27",
"r 	c #E7A54A",
"s 	c #D28E34",
"t 	c #DB993D",
"u 	c #DF9D39",
"v 	c #C98823",
"w 	c #CA8823",
"x 	c #CC860F",
"y 	c #C08E14",
"z 	c #E2A83A",
"A 	c #D09D30",
"B 	c #D9A12B",
"C 	c #CE941F",
"D 	c #E4AA36",
"E 	c #DAA02B",
"F 	c #D79D29",
"G 	c #C58A17",
"H 	c #D89D2A",
"I 	c #CA972B",
"J 	c #BE8B1F",
"K 	c #D3A135",
"L 	c #CEA65A",
"M 	c #C3994F",
"N 	c #CFA65A",
"O 	c #C3AA47",
"P 	c #CA8824",
"Q 	c #BE7A17",
"R 	c #C58007",
"S 	c #C58228",
"T 	c #C58327",
"U 	c #DC9A3D",
"V 	c #BF7B17",
"W 	c #D08A11",
"X 	c #B7830C",
"Y 	c #DFAF42",
"Z 	c #D4A436",
"` 	c #F0B741",
" .	c #F0B641",
"..	c #ECB13D",
"+.	c #C68B18",
"@.	c #C68B17",
"#.	c #C9972B",
"$.	c #BD8C20",
"%.	c #AD8339",
"&.	c #C39A4E",
"*.	c #B88E44",
"=.	c #AD9430",
"-.	c #CA860F",
";.	c #C47F08",
">.	c #B78611",
",.	c #BD8C17",
"'.	c #BE8C18",
").	c #B78610",
"!.	c #AD7A00",
"~.	c #C3910B",
"{.	c #C3910D",
"].	c #D58114",
"^.	c #E18E21",
"/.	c #D68015",
"(.	c #CB7707",
"_.	c #D6A22D",
":.	c #E1AF3A",
"<.	c #DAA232",
"[.	c #F0B649",
"}.	c #E5BB4F",
"|.	c #DAB044",
"1.	c #E4BB4E",
"2.	c #DFAD42",
"3.	c #D89E1F",
"4.	c #CC9114",
"5.	c #B57B05",
"6.	c #CC911C",
"7.	c #C38811",
"8.	c #D89D27",
"9.	c #B57406",
"0.	c #C17E12",
"a.	c #C49215",
"b.	c #BE740F",
"c.	c #D38924",
"d.	c #B88812",
"e.	c #C3911C",
"f.	c #B3820D",
"g.	c #B88612",
"h.	c #AD7C06",
"i.	c #CE9D18",
"j.	c #B88802",
"k.	c #B98902",
"l.	c #CC7709",
"m.	c #E2AE3A",
"n.	c #E4AC3C",
"o.	c #DBA034",
"p.	c #CDA439",
"q.	c #CEA439",
"r.	c #D4A135",
"s.	c #C18809",
"t.	c #D89528",
"u.	c #C17F11",
"v.	c #BE8C0F",
"w.	c #CF9D1F",
"x.	c #D38925",
"y.	c #CA7E1B",
"z.	c #AC7B06",
"A.	c #CF9D28",
"B.	c #B57B0F",
"C.	c #C1871B",
"D.	c #CC9125",
"E.	c #CB9224",
"F.	c #C39125",
"G.	c #AD7B0F",
"H.	c #C39326",
"I.	c #D09D32",
"J.	c #C38F1B",
"K.	c #B8820F",
"L.	c #C4921A",
"M.	c #CF9926",
"N.	c #F1B649",
"O.	c #E3AB3C",
"P.	c #D8A431",
"Q.	c #D7A430",
"R.	c #E3B03C",
"S.	c #CC9113",
"T.	c #C37E11",
"U.	c #C38011",
"V.	c #C17F0A",
"W.	c #C17E0A",
"X.	c #D79520",
"Y.	c #BD730F",
"Z.	c #D2871B",
"`.	c #C67B0F",
" +	c #C1881A",
".+	c #CE9D31",
"++	c #D09E31",
"@+	c #B9891B",
"#+	c #C39224",
"$+	c #B7830F",
"%+	c #C49119",
"&+	c #C08C18",
"*+	c #D5A22D",
"=+	c #ECBB46",
"-+	c #BF8A1E",
";+	c #B67C00",
">+	c #CD9314",
",+	c #B67405",
"'+	c #B67306",
")+	c #D89527",
"!+	c #CB8914",
"~+	c #C99619",
"{+	c #C49115",
"]+	c #DF9531",
"^+	c #D1871B",
"/+	c #DB9125",
"(+	c #DC9125",
"_+	c #B58338",
":+	c #CC9A4E",
"<+	c #D8A65A",
"[+	c #C1A866",
"}+	c #C3A965",
"|+	c #B69D5B",
"1+	c #C3AB67",
"2+	c #DFB458",
"3+	c #C49B3E",
"4+	c #A57C1F",
"5+	c #C4993D",
"6+	c #C98F18",
"7+	c #C68B14",
"8+	c #C6841E",
"9+	c #ECA945",
"0+	c #D69D27",
"a+	c #E9AE38",
"b+	c #E8AF3A",
"c+	c #D69C27",
"d+	c #DA9521",
"e+	c #B16F00",
"f+	c #BE8B16",
"g+	c #CB9823",
"h+	c #C08E0F",
"i+	c #C59315",
"j+	c #BF8C0F",
"k+	c #CE9D20",
"l+	c #C68D1F",
"m+	c #B96F13",
"n+	c #BA6E14",
"o+	c #F09B4A",
"p+	c #DF8C39",
"q+	c #DD9A47",
"r+	c #D69441",
"s+	c #E79D4A",
"t+	c #E89D4A",
"u+	c #B58339",
"v+	c #D7A65A",
"w+	c #D8BF7D",
"x+	c #C3AA65",
"y+	c #A57B1E",
"z+	c #B16F0A",
"A+	c #B16E0A",
"B+	c #C18812",
"C+	c #C38914",
"D+	c #C6840F",
"E+	c #C6830F",
"F+	c #CC9824",
"G+	c #D09C1E",
"H+	c #C59114",
"I+	c #CE9C1F",
"J+	c #BC8315",
"K+	c #BB8115",
"L+	c #CD8327",
"M+	c #CE8228",
"N+	c #E5923F",
"O+	c #E6A452",
"P+	c #E09D4B",
"Q+	c #D18733",
"R+	c #DC913D",
"S+	c #C1A85E",
"T+	c #B59D51",
"U+	c #CCB268",
"V+	c #B59C52",
"W+	c #CAA155",
"X+	c #C9A054",
"Y+	c #D5AC60",
"Z+	c #E1B66A",
"`+	c #D9C074",
" @	c #C3AB5E",
".@	c #CFB467",
"+@	c #B89D50",
"@@	c #D0951E",
"#@	c #C0840F",
"$@	c #C5841E",
"%@	c #C38813",
"&@	c #D09521",
"*@	c #BA8009",
"=@	c #D99521",
"-@	c #C99722",
";@	c #ECBA45",
">@	c #D8A631",
",@	c #C6941F",
"'@	c #B27F0B",
")@	c #BC8215",
"!@	c #F3A94D",
"~@	c #DF8B3A",
"{@	c #E6A451",
"]@	c #DC9A47",
"^@	c #F8A55A",
"/@	c #E28E44",
"(@	c #D8BF74",
"_@	c #D4AA5E",
":@	c #BD9348",
"<@	c #CBA256",
"[@	c #B69D51",
"}@	c #CDB468",
"|@	c #CCB467",
"1@	c #B97E0A",
"2@	c #C38915",
"3@	c #EEAA35",
"4@	c #E1AD3A",
"5@	c #D4A22D",
"6@	c #ECB946",
"7@	c #EDBA46",
"8@	c #EBB945",
"9@	c #C58C1F",
"0@	c #DF9539",
"a@	c #F09C4A",
"b@	c #EF9C4A",
"c@	c #D68338",
"d@	c #D68238",
"e@	c #D8BE74",
"f@	c #C9B85C",
"g@	c #CEBE61",
"h@	c #CCB26F",
"i@	c #C9A775",
"j@	c #C6A572",
"k@	c #C6A571",
"l@	c #B76B06",
"m@	c #C37711",
"n@	c #C68E1E",
"o@	c #BB8414",
"p@	c #C98618",
"q@	c #C07D0F",
"r@	c #D98C21",
"s@	c #C37709",
"t@	c #E9AF49",
"u@	c #DCA23C",
"v@	c #DDA23C",
"w@	c #E9AE49",
"x@	c #D2A13C",
"y@	c #DCAB46",
"z@	c #F0BE4A",
"A@	c #E4B23D",
"B@	c #D79D31",
"C@	c #C58B1F",
"D@	c #D88C4B",
"E@	c #D69B41",
"F@	c #ECB256",
"G@	c #D69442",
"H@	c #E19E4B",
"I@	c #C1A85D",
"J@	c #CBB268",
"K@	c #BEAD51",
"L@	c #B59C5A",
"M@	c #D8BF7C",
"N@	c #D0AD7B",
"O@	c #BF9E6A",
"P@	c #D0AF7C",
"Q@	c #CC801B",
"R@	c #B77D0F",
"S@	c #C68C1E",
"T@	c #CF8E1E",
"U@	c #CC8015",
"V@	c #CD8114",
"W@	c #D29832",
"X@	c #E8AD49",
"Y@	c #DBA13E",
"Z@	c #DCAA47",
"`@	c #D9A933",
" #	c #C58A1F",
".#	c #B1770A",
"+#	c #D78D4B",
"@#	c #E7A451",
"##	c #DD9947",
"$#	c #E19D4B",
"%#	c #C4B357",
"&#	c #DFB773",
"*#	c #CAA15E",
"=#	c #C9A05D",
"-#	c #BE9D51",
";#	c #E1C074",
">#	c #C09F52",
",#	c #C37712",
"'#	c #B87E0F",
")#	c #C07E0F",
"!#	c #C68315",
"~#	c #C3770A",
"{#	c #CE932F",
"]#	c #DFA642",
"^#	c #DFA641",
"/#	c #E8B752",
"(#	c #E4B23E",
"_#	c #B2770C",
":#	c #EBA15F",
"<#	c #E2A84C",
"[#	c #DA8E44",
"}#	c #D98F45",
"|#	c #E49A4E",
"1#	c #C9B75C",
"2#	c #C5B457",
"3#	c #D5AC68",
"4#	c #BE9551",
"5#	c #CCAB5E",
"6#	c #E2C073",
"7#	c #CBA960",
"8#	c #D98C27",
"9#	c #C47713",
"0#	c #C88E1E",
"a#	c #C68414",
"b#	c #BA801C",
"c#	c #E1A741",
"d#	c #DBAA46",
"e#	c #E5B23E",
"f#	c #CE9C28",
"g#	c #B2770B",
"h#	c #C68B1F",
"i#	c #D88D4B",
"j#	c #EDA15F",
"k#	c #D69D40",
"l#	c #F0A65A",
"m#	c #C69E4B",
"n#	c #C69D4B",
"o#	c #DBB25E",
"p#	c #DBB15F",
"q#	c #E4C36F",
"r#	c #CB9F53",
"s#	c #C69B4F",
"t#	c #C69F40",
"u#	c #DBB054",
"v#	c #EEA038",
"w#	c #D38A22",
"x#	c #B47E0B",
"y#	c #C8951E",
"z#	c #B4800C",
"A#	c #C38012",
"B#	c #C37E14",
"C#	c #D09D28",
"D#	c #BF8A17",
"E#	c #E3B13C",
"F#	c #D09E29",
"G#	c #DF9D27",
"H#	c #CA7512",
"I#	c #D4801C",
"J#	c #B57305",
"K#	c #D68B40",
"L#	c #EDA157",
"M#	c #EDA156",
"N#	c #E49A47",
"O#	c #E49946",
"P#	c #ECB24D",
"Q#	c #B58C38",
"R#	c #C79E4B",
"S#	c #C89D4C",
"T#	c #DCB160",
"U#	c #D3B15B",
"V#	c #C69A51",
"W#	c #D9B152",
"X#	c #D48B24",
"Y#	c #B5810A",
"Z#	c #D9A830",
"`#	c #D99527",
" $	c #AA7702",
".$	c #CA8812",
"+$	c #BE7A06",
"@$	c #DF8C27",
"#$	c #D99529",
"$$	c #CC881C",
"%$	c #CC8A1C",
"&$	c #E3974D",
"*$	c #E2974D",
"=$	c #F0A653",
"-$	c #D89D38",
";$	c #C58A1E",
">$	c #C68B1E",
",$	c #EEB446",
"'$	c #D3B05C",
")$	c #D0A55B",
"!$	c #C99F55",
"~$	c #B4892D",
"{$	c #CA7C14",
"]$	c #D49133",
"^$	c #C88226",
"/$	c #D39231",
"($	c #EAA949",
"_$	c #F29D50",
":$	c #E28C43",
"<$	c #E89249",
"[$	c #B6840F",
"}$	c #C1901A",
"|$	c #D3921C",
"1$	c #C98812",
"2$	c #C97512",
"3$	c #CC8813",
"4$	c #C3800A",
"5$	c #CC8A14",
"6$	c #C68227",
"7$	c #D89539",
"8$	c #EBA94E",
"9$	c #D9903C",
"0$	c #C58A27",
"a$	c #AA8B33",
"b$	c #BFA048",
"c$	c #C09549",
"d$	c #C87B17",
"e$	c #DF9B3D",
"f$	c #EBA849",
"g$	c #D38F33",
"h$	c #EB984C",
"i$	c #F19D51",
"j$	c #E18E42",
"k$	c #DAA732",
"l$	c #C38F1C",
"m$	c #B5820F",
"n$	c #CC9925",
"o$	c #D3911C",
"p$	c #B67300",
"q$	c #B26F12",
"r$	c #C68328",
"s$	c #C68327",
"t$	c #DA8E3C",
"u$	c #CE8231",
"v$	c #D28D15",
"w$	c #C8840A",
"x$	c #C9830C",
"y$	c #CA860A",
"z$	c #C4810F",
"A$	c #C47E13",
"B$	c #B77406",
"C$	c #CD931B",
"D$	c #B77D06",
"E$	c #C38F12",
"F$	c #D0833A",
"G$	c #E59B4F",
"H$	c #F1A75B",
"I$	c #DA983C",
"J$	c #E4A247",
"K$	c #E3A247",
"L$	c #F09E49",
"M$	c #CE7B27",
"N$	c #CC8915",
"O$	c #CA881A",
"P$	c #C9881C",
"Q$	c #BE7C0F",
"R$	c #CE9E28",
"S$	c #C8931C",
"T$	c #C7951C",
"U$	c #C7840A",
"V$	c #BB7700",
"W$	c #CB820B",
"X$	c #DB9526",
"Y$	c #CC891B",
"Z$	c #DA9528",
"`$	c #B67C05",
" %	c #C38911",
".%	c #B68405",
"+%	c #C39011",
"@%	c #DB8F45",
"#%	c #CE8A2F",
"$%	c #F09D49",
"%%	c #E5913E",
"&%	c #C99719",
"*%	c #D89521",
"=%	c #B27E0C",
"-%	c #C9881A",
";%	c #B88811",
">%	c #AC7B05",
",%	c #AD7A06",
"'%	c #BB8811",
")%	c #BC880F",
"!%	c #D9A73E",
"~%	c #CD9A32",
"{%	c #E5B149",
"]%	c #CF9931",
"^%	c #E5AB33",
"/%	c #BE840F",
"(%	c #A96E00",
"_%	c #DA9D28",
":%	c #CD9A1B",
"<%	c #CC9A1C",
"[%	c #E19E41",
"}%	c #E6A447",
"|%	c #DF9348",
"1%	c #F2A65A",
"2%	c #F09E4A",
"3%	c #E4923E",
"4%	c #C5921F",
"5%	c #E8B741",
"6%	c #E9B742",
"7%	c #DBAA35",
"8%	c #C69320",
"9%	c #B1800A",
"0%	c #D28E25",
"a%	c #BC770F",
"b%	c #C8821C",
"c%	c #E4B149",
"d%	c #DCA840",
"e%	c #D09B33",
"f%	c #E4AA35",
"g%	c #D09520",
"h%	c #BF840F",
"i%	c #B68406",
"j%	c #E7A248",
"k%	c #EBA84B",
"l%	c #DF9448",
"m%	c #D98833",
"n%	c #B57300",
"o%	c #D89520",
"p%	c #D7A631",
"q%	c #DCAA36",
"r%	c #D2A12B",
"s%	c #DCAB35",
"t%	c #E9BE49",
"u%	c #D7AF3A",
"v%	c #EEAB46",
"w%	c #FBB653",
"x%	c #D09E3A",
"y%	c #D09D38",
"z%	c #BF7B0F",
"A%	c #CB8619",
"B%	c #C07C0F",
"C%	c #D08D1E",
"D%	c #C3802D",
"E%	c #E9A653",
"F%	c #E8A652",
"G%	c #F0AD52",
"H%	c #D9973C",
"I%	c #E4A147",
"J%	c #CB891C",
"K%	c #B78711",
"L%	c #BA871B",
"M%	c #CE9B2F",
"N%	c #E7AD41",
"O%	c #E6AC40",
"P%	c #CD9439",
"Q%	c #E4AA4E",
"R%	c #D9A045",
"S%	c #B58C16",
"T%	c #B68A17",
"U%	c #C58214",
"V%	c #E4A23C",
"W%	c #E5AA3E",
"X%	c #D08E1E",
"Y%	c #D69341",
"Z%	c #E4A146",
"`%	c #CD8B30",
" &	c #E3A147",
".&	c #D79529",
"+&	c #C2911C",
"@&	c #CE9D28",
"#&	c #DFAE41",
"$&	c #CD9C2F",
"%&	c #D69D31",
"&&	c #F0B65A",
"*&	c #CD9438",
"=&	c #E3AA4E",
"-&	c #E4B247",
";&	c #D9A83C",
">&	c #E1B944",
",&	c #E3A03C",
"'&	c #F0B749",
")&	c #D09E39",
"!&	c #D98D20",
"~&	c #BB770A",
"{&	c #CE8A1E",
"]&	c #F4B246",
"^&	c #D58B39",
"/&	c #E89E4B",
"(&	c #E89D4B",
"_&	c #D68A38",
":&	c #B57306",
"<&	c #B88712",
"[&	c #E0A73B",
"}&	c #E3B246",
"|&	c #D29734",
"1&	c #E8AD4A",
"2&	c #D9AD3A",
"3&	c #C19723",
"4&	c #BF7C0F",
"5&	c #DFB43F",
"6&	c #E3A13C",
"7&	c #D9A133",
"8&	c #CE9428",
"9&	c #E4B24D",
"0&	c #BD8C27",
"a&	c #CC8013",
"b&	c #BA770C",
"c&	c #D08B1E",
"d&	c #E19E31",
"e&	c #C17723",
"f&	c #C17724",
"g&	c #DCA336",
"h&	c #D29733",
"i&	c #D8AE38",
"j&	c #B58B17",
"k&	c #C98619",
"l&	c #E8B652",
"m&	c #E9B753",
"n&	c #CBA124",
"o&	c #D8AD31",
"p&	c #DF9E28",
"q&	c #C69316",
"r&	c #C69516",
"s&	c #BD8C0C",
"t&	c #CC9224",
"u&	c #C3891B",
"v&	c #CD9326",
"w&	c #CC9124",
"x&	c #D4911C",
"y&	c #BD7B05",
"z&	c #BE7B06",
"A&	c #CF8C18",
"B&	c #C27F0C",
"C&	c #CF9529",
"D&	c #E3A93D",
"E&	c #D69C30",
"F&	c #E1A73C",
"G&	c #E2A83C",
"H&	c #E6B548",
"I&	c #D3A034",
"J&	c #E9B749",
"K&	c #DDAB3C",
"L&	c #EDA93E",
"M&	c #C68317",
"N&	c #D89518",
"O&	c #D2A03C",
"P&	c #CCA125",
"Q&	c #B58407",
"R&	c #C18F11",
"S&	c #B78606",
"T&	c #B67C0F",
"U&	c #BF7B06",
"V&	c #C98811",
"W&	c #C3800C",
"X&	c #BD8317",
"Y&	c #ECB246",
"Z&	c #DCA13E",
"`&	c #D2A034",
" *	c #CE9327",
".*	c #E4AB3E",
"+*	c #D8952A",
"@*	c #DF9D31",
"#*	c #DF9E32",
"$*	c #F3B246",
"%*	c #F4B245",
"&*	c #CBA125",
"**	c #B67B06",
"=*	c #E2B749",
"-*	c #CBA131",
";*	c #CCA233",
">*	c #D6AB3D",
",*	c #B97E11",
"'*	c #D09529",
")*	c #AD7306",
"!*	c #C38A1C",
"~*	c #B87501",
"{*	c #DDAA37",
"]*	c #E7B541",
"^*	c #E7B548",
"/*	c #DBAA3E",
"(*	c #BA770B",
"_*	c #CE8B1F",
":*	c #CD8A1F",
"<*	c #B58A0F",
"[*	c #C1971B",
"}*	c #E2B849",
"|*	c #D09527",
"1*	c #D09528",
"2*	c #C3881C",
"3*	c #CE8D19",
"4*	c #B87503",
"5*	c #D6A630",
"6*	c #E6B540",
"7*	c #E1AF3B",
"8*	c #D6A531",
"9*	c #ECAA3E",
"0*	c #C68216",
"a*	c #B57400",
"b*	c #BD7B06",
"c*	c #CF9510",
"d*	c #AC7200",
"e*	c #BA7F14",
"f*	c #BB8014",
"g*	c #D99E31",
"h*	c #EEB147",
"i*	c #E5B43D",
"j*	c #DBA931",
"k*	c #CF9D26",
"l*	c #EEBA4F",
"m*	c #B17E14",
"n*	c #B18013",
"o*	c #C69327",
"p*	c #B17F0A",
"q*	c #E7BE39",
"r*	c #DCB32E",
"s*	c #D6AD28",
"t*	c #E6BD38",
"u*	c #E2A03C",
"v*	c #D9B03C",
"w*	c #CEA430",
"x*	c #DFBF49",
"y*	c #D4B43C",
"z*	c #E9AF42",
"A*	c #E8AD41",
"B*	c #D09531",
"C*	c #C38824",
"D*	c #CE9531",
"E*	c #C98711",
"F*	c #DF9532",
"G*	c #B77F00",
"H*	c #C68C20",
"I*	c #ECB145",
"J*	c #DA9D32",
"K*	c #E4B43C",
"L*	c #DCAB33",
"M*	c #D9A83A",
"N*	c #C69328",
"O*	c #B27E12",
"P*	c #E1B732",
"Q*	c #D7AD28",
"R*	c #E1B833",
"S*	c #D69430",
"T*	c #E4BB47",
"U*	c #E4BA46",
"V*	c #CAA833",
"W*	c #C9A934",
"X*	c #D2982B",
"Y*	c #DCA235",
"Z*	c #C38926",
"`*	c #AC740F",
" =	c #E3A14E",
".=	c #E3A04D",
"+=	c #CF8C39",
"@=	c #CF8D39",
"#=	c #C97F1B",
"$=	c #C97E1B",
"%=	c #AC7300",
"&=	c #B0750A",
"*=	c #E1B144",
"==	c #DFAC3F",
"-=	c #E9B649",
";=	c #E8B749",
">=	c #EBA830",
",=	c #D2901B",
"'=	c #C5840F",
")=	c #D2901A",
"!=	c #C98E23",
"~=	c #D4992D",
"{=	c #DFA638",
"]=	c #D3992D",
"^=	c #F9B653",
"/=	c #CDA430",
"(=	c #DAB03C",
"_=	c #BD8315",
":=	c #E3A14D",
"<=	c #D38825",
"[=	c #DDAB3E",
"}=	c #D6A73A",
"|=	c #C6820F",
"1=	c #BD8216",
"2=	c #BF8417",
"3=	c #D89331",
"4=	c #DFBF4A",
"5=	c #D4B23E",
"6=	c #DDA236",
"7=	c #DA873C",
"8=	c #F09D52",
"9=	c #E39147",
"0=	c #C47815",
"a=	c #BE730F",
"b=	c #CC9115",
"c=	c #C1880A",
"d=	c #ECB23E",
"e=	c #D89D29",
"f=	c #E19531",
"g=	c #C37E0A",
"h=	c #DD882D",
"i=	c #D27E23",
"j=	c #BE8317",
"k=	c #CA9023",
"l=	c #DBA22D",
"m=	c #DBA12D",
"n=	c #D49125",
"o=	c #D39224",
"p=	c #B98812",
"q=	c #D99520",
"r=	c #B77400",
"s=	c #C38003",
"t=	c #BD7A27",
"u=	c #CB9114",
"v=	c #B27703",
"w=	c #C68C16",
"x=	c #CA7E1A",
"y=	c #BF730F",
"z=	c #C57317",
"A=	c #D49A2D",
"B=	c #C78D17",
"C=	c #D99518",
"D=	c #E39947",
"E=	c #D98F3D",
"F=	c #EFA553",
"G=	c #C87D19",
"H=	c #CE821F",
"I=	c #B57B06",
"J=	c #C18711",
"K=	c #D28022",
"L=	c #E99538",
"M=	c #F0A752",
"N=	c #E1A742",
"O=	c #D69B37",
"P=	c #CC8F2A",
"Q=	c #C0831E",
"R=	c #DCA22D",
"S=	c #C88E19",
"T=	c #CB891B",
"U=	c #D49124",
"V=	c #CD8914",
"W=	c #BE720F",
"X=	c #CE831F",
"Y=	c #C18712",
"Z=	c #CB911C",
"`=	c #C97F1A",
" -	c #E8953A",
".-	c #DB8F3C",
"+-	c #C0821E",
"@-	c #B98911",
"#-	c #CD890C",
". . . . + @ # # $ % & * = - ; > , ' ) ! ~ { ] ^ ^ / / ( _ : : < [ } | 1 2 3 4 4 ",
"5 5 6 6 7 @ # @ $ 8 9 0 a b c > d ' e f ) g { ^ { h h i i j j k l m | n o p 3 q ",
"r r r s t u n v w 9 x a y z ; A d B C D E F G G H I J K d L M N N O O P Q R 8 R ",
"S S s T U n Q o V W % a X z c Y Z B ` D  ...H +.@.#.$.I $.%.&.*.*.=.=.v Q -.% ;.",
">.>.,.'.).!.~.{.{.].^./.(._.:.<.[.}.|.1.1.2.d 3.4.5.6.7.8.9.0.0.0.a.a.b.c.d.d.e.",
"f.f.,.g.h.i.j.{.k.].l.(.(.m.:.n.o.}.|.p.q.K r.4.s.7.6.6.5.t.0.u.0.v.w.x.y.z.A.z.",
"B.B.C.D.E.F.G.H.I.J.K.L.M._.:.N.O.P.Q.R.Q.r.$.S.S.T.T.U.0.V.W.X.X.v.v.y.Y.Z.Z.`.",
"C.C.B.B. +.+++@+#+$+K.%+K.&+*+n.o.=+R.R.R.-+-+;+>+T.,+'+)+V.W.!+!+~+{+]+x.^+/+(+",
"_+_+_+:+<+[+}+|+1+2+3+4+5+6+7+8+9+0+a+b+c+d+e+f+g+h+i+j+k+l+B.m+n+o+p+q+r+s+t+t+",
"u+u+v+:+<+w+}+x+1+2+5+3+y+6+7+z+A+B+c+c+C+D+E+F+:.G+G+H+I+J+K+L+M+p+N+O+P+Q+t+R+",
"S+S+T+U+V+W+X+Y+Z+`+ @.@+@@@#@A+$@%@C+&@*@=@=@*+-@;@>@,@'@K+)@L+!@p+~@{@]@^@/@@ ",
"T+T+S+(@(@_@:@X+<@[@}@ @|@6+#@8+8+1@2@*@&@=@3@4@5@6@7@,@8@B.9@0@!@a@b@{@O+c@d@c@",
"V+V+e@f@g@[+h@h@}+i@j@j@k@l@m@n@o@p@q@r@s@t@u@v@w@x@y@z@A@B@C@D@D@E@F@P+G@q+H@r+",
"I@I@J@K@f@L@M@w+[+N@O@j@P@Q@m@R@S@T@q@U@V@W@X@Y@Y@y@Z@`@`@ #.#+#+#E@F@O+@#O+##$#",
"I@I@U+%#g@&#*#=#=#-#;#>#>#,#Q@'#'#)#!#~#~#{#]#]#^#x@/#(#`@_#_#:#:#<#E@q+H@[#}#|#",
"U+U+S+1#2#=#=#3#4#5#5#6#7#8#9#'#0#p@a#V@~#b#c#]#{#d#x@e#f#g#h#i#j#k#<#q+O+l#[#l#",
"m#m#n#o#p#q#q#r#s#t#u#v#w#x#y#x#z#A#B#B#B#C#D#E#F#G#G#H#I#J#J#0.t.K#L#M#M#N#O#P#",
"Q#Q#R#S#T#U#U#V#s#W#u#X#X#Y#x#x#Z#`#`#`#A# $C#f+D#.$+$@$H##$$$$$%$&$K#K#*$O#=$-$",
";$;$>$S@,$'$U#)$!$W#~$w#{$]$^$/$($_$:$:$<$J.[$[$}$|$1$2$@$3$4$3$5$6$7$7$8$O#9$0$",
".#.#.#S@0#a$b$c$c$~$~$d$d$^$e$f$g$<$h$i$j$k$l$m$n$|$o$2$2$5$3$p$3$q$r$r$s$t$u$0$",
"v$v$w$x$y$z$A$A#B$C$D$E$E$F$G$H$|#I$J$J$K$L$M$k+a.N$W.,@,@^ O$P$Q$e.e.d.R$S$T$T$",
"U$U$V$x$W$X$A#Y$Z$`$ %.%+%|#|#|#@%K$#%K$K$$%%%&%I+*%V.=%,@-%^ P$P$;%;%>%,%'%)%'%",
"!%!%~%{%]%^%/%/%(% %_%:%<%[%}%}%[%|%|%1%|%2%3%a.v.!+!+4%,@,@5%6%7%8%9%8%8%0%a%b%",
"!%!%c%d%e%f%f%g%h%C$`$<%i%j%k%k%k%l%1%l%1%3%m%v.a.n%o%p%8@q%r%5%s%>@6@>@8%b%a%b%",
"t%t%u%v%w%<.[.x%y%z%A%B%C%D%E%F%F%G%H%I%H%t.J%K%z.L%M%N%O%P%Q%R%P%e e ) .+S%T%U%",
"u%u%u%V%V%[.W%y%y%C%a#a#X%D%Y%E%F%Z%`%I% &.&.&+&@&#&$&%&%&&&*&=&Q%-&e ) ;&T%T%U%",
">&>&>&w%,&'&W%)&y%!&V@V@s@~&{&{&]&^&/&(&_&t.:&<&@&2.$&O%[&}&;&~ -&|&1&Y@v@2&3&4&",
"u%u%5&,&6&7&8&9&0&a&~#V@s@b&c&{&d&e&f&f&f&J%J%z.@&#&#&O%g&;&~ ! e |&h&X@w@i&j&k&",
"l&l&l&x@m&n&o&p&1$q&i%r&s&t&u&v&w&x&y&|$z&A&B&C&D&E&F&G&G&H&I&h&|&J&K&7&W%L&M&N&",
"O&O&x@x@/#P&o&o$+$Q&R&r&S&R@u&R@T&U&V&.$|$A&W&X&D&G&E&Y&Y&I&I&Z&w@`&J& *.*+*+*N&",
"@*@*#*$*%*o&&*z&|$5.**C$_%=*-*;*>*,*'*)*!*~*W&C&D&{*]*{*]*H&^*h&h&/*J& *'&+*M&N&",
"(*(*_*@*:*<*[*z&|$8.6.6._%>*-*}*>*|*1*2*!*3*4*X&C&5*6*7*8*^*H&1&Z&J&`&o.7&9*0*a*",
"|$|$z&o$b*Y.x.c*d*e*f*g*h*i*i*j*k*l*m*n*o*+$z&p*p%q*r*s*t*u*u*v*w*x*y*z*A*B*C*D*",
"o$o$E*E*o$F*Y.G*c*l+H*I*J*K*L*L*j*M*N*n*O*p&z&p*,@r*P*Q*R*u*S*T*U*V*W*X*Y*Z*`*C*",
" = =.=+=@=#=$=%=c*&=f*g*I**===-=;=>=,='=)=+$.$=%'@!=~={=]=6&^=/=(=V*y*z*>$_=o@T&",
".=.=.=@=:=<=Y.G*c*&=l+H*Y&[=}=*===,=D+'=|=+$.$,@8%1=2=~={=3=6&(=U*4=5=6=>$R@_=T&",
"7=7=8=9=9=:=+=0=a=b=b=c=3.d=e=f=f=g=d+h=i=!=j=~=k=**C$6.7.l=m=n=o=R$p=q=d+r=s=T.",
"9=9=9=9=9=:=t=0=a=u=c=c=c=v=w=x=y=3$g=z=i=k=k=A=2=C$ % %C$B=**P$^ p=>%4$g=C=C=Y$",
"D=D=D=E=F=:=@=G=H=I=J=I=6.+.@.b.]+5$3$K=L==$M=N#N#N=O=P=Q=R=S=T=U=e.p=3$V=C=C=A#",
"F=F=D=E=E=:=t=W=X=Y=I=Z=Z=+.+.`=`=5$o%h= -.-N#N#N#N=O=P=+-D$6+Q$Q$@-e.4$4$#-C=A#"};
